<?xml version="1.0" encoding="UTF-8"?><svg id="uuid-ea7412e9-da18-4e1c-91c0-f6a584f31d18" xmlns="http://www.w3.org/2000/svg" width="48.87mm" height="39.18mm" viewBox="0 0 138.54 111.06"><defs><style>.uuid-c72d786c-edbf-4887-9ab3-8258ad75ef5d,.uuid-891d0cbc-91cc-4a16-bb17-178931e2e58e,.uuid-3133dcb4-7bec-4974-b4ce-f3dff9f9aa51{stroke:#e5e1d6;stroke-miterlimit:10;}.uuid-c72d786c-edbf-4887-9ab3-8258ad75ef5d,.uuid-82674679-a0ab-46f8-ae64-9562ade56b18{fill:#1e2c3c;}.uuid-891d0cbc-91cc-4a16-bb17-178931e2e58e,.uuid-3133dcb4-7bec-4974-b4ce-f3dff9f9aa51{fill:none;}.uuid-3133dcb4-7bec-4974-b4ce-f3dff9f9aa51{stroke-width:1.01px;}.uuid-82674679-a0ab-46f8-ae64-9562ade56b18,.uuid-9543b59c-bcc7-4b1f-bfcd-4b467c157cd6{stroke-width:0px;}.uuid-9543b59c-bcc7-4b1f-bfcd-4b467c157cd6{fill:#147985;}</style></defs><path class="uuid-82674679-a0ab-46f8-ae64-9562ade56b18" d="m67.31,71.35c-.09-10.49-.18-20.98-.27-31.46-8.17.01-16.33.02-24.5.03v-5H2.1V2.15h120.88l13.59,31.45h-33.21v6.32c-10.17-.01-20.35-.02-30.52-.03-.06,10.48-.12,20.97-.19,31.45-1.78,0-3.56,0-5.34.01Z"/><path class="uuid-9543b59c-bcc7-4b1f-bfcd-4b467c157cd6" d="m21.15,64.63c-.59,5.32-2.41,7.29-3.59,12.99-.33,1.6-1.63,7.93-.25,13.9,2.28,9.86,11.1,15.48,14.44,17.38h75.94c12.74-8.96,13.76-17.34,13.9-19.74.19-3.25-.54-7.98-.99-10.92-.99-6.43-1.75-6.82-2.36-11.79-1.35-10.97,1.6-15.27,2.48-15.77,1.33-.74,2.73-.74,2.73-.74h0c2.33.06,3.91,1.88,4.33,2.4-1.42,2.08-1.25,4.7.21,6.21,1.62,1.68,4.28,1.39,5.82.51,3.72-2.11,2.61-8.66,2.55-8.96-1.07-5.86-6.51-8.64-6.95-8.86-5.16-2.54-10.98-1-14.52,1.49-4.7,3.3-6.32,8.78-7.2,11.79-1.57,5.35-.87,9.01-4.1,13.53-1.08,1.52-2.21,2.58-2.98,3.23-20.9.04-41.79.08-62.69.12-1.15-1.35-2.74-3.46-4.01-6.33-2.17-4.89-1.19-6.9-2.6-11.42-.44-1.41-3.07-9.85-10.5-12.79-.12-.05-.31-.12-.56-.21-4.17-1.48-8.05-.36-9.19,0-1.37.45-4.3,1.4-6.46,4.21-2.83,3.68-3.46,9.38-.91,12.65.39.51,1.79,2.29,3.98,2.34,2.05.04,3.37-1.49,3.45-1.59,1.21-1.45,1.36-3.62.36-5.44.9-2.12,3.08-3.31,5.12-2.91,1.6.31,2.92,1.57,3.43,3.23.79,2.67,1.63,6.7,1.1,11.46Z"/><circle class="uuid-9543b59c-bcc7-4b1f-bfcd-4b467c157cd6" cx="46.83" cy="73.48" r="10.22"/><circle class="uuid-c72d786c-edbf-4887-9ab3-8258ad75ef5d" cx="46.42" cy="74.18" r="8.61"/><path class="uuid-891d0cbc-91cc-4a16-bb17-178931e2e58e" d="m40.32,79.88c.78-1.56,1.95-3.47,3.69-5.4,3.11-3.44,6.55-5.24,8.71-6.15"/><path class="uuid-891d0cbc-91cc-4a16-bb17-178931e2e58e" d="m40.42,68.01c.67,1.77,1.77,4.08,3.6,6.48,2.61,3.42,5.55,5.48,7.5,6.62"/><circle class="uuid-9543b59c-bcc7-4b1f-bfcd-4b467c157cd6" cx="93.24" cy="73.81" r="10.22"/><circle class="uuid-c72d786c-edbf-4887-9ab3-8258ad75ef5d" cx="93.83" cy="73.89" r="8.61"/><path class="uuid-3133dcb4-7bec-4974-b4ce-f3dff9f9aa51" d="m100.55,79.21c-.84-1.62-2.15-3.73-4.16-5.83-3.08-3.22-6.35-4.92-8.41-5.8"/><path class="uuid-891d0cbc-91cc-4a16-bb17-178931e2e58e" d="m88.5,80.64c2.56-1.18,6.56-3.48,9.8-7.81,1.05-1.41,1.85-2.79,2.45-4.05"/><circle class="uuid-9543b59c-bcc7-4b1f-bfcd-4b467c157cd6" cx="69.98" cy="73.11" r="10.22"/><circle class="uuid-c72d786c-edbf-4887-9ab3-8258ad75ef5d" cx="69.98" cy="73.51" r="8.61"/><line class="uuid-891d0cbc-91cc-4a16-bb17-178931e2e58e" x1="75.98" y1="79.68" x2="63.49" y2="67.69"/><line class="uuid-891d0cbc-91cc-4a16-bb17-178931e2e58e" x1="63.85" y1="79.85" x2="76.1" y2="67.99"/></svg>