<svg width="1440" height="79" viewBox="0 0 1440 79" fill="none" xmlns="http://www.w3.org/2000/svg">
<path fill-rule="evenodd" clip-rule="evenodd" d="M43.5974 78.3184V31.9394H52.2364V78.3184H43.5974ZM17.1973 61.251V14.8706H25.8363V61.251H17.1973ZM-14 46.3809V0.00050354H-5.36101V46.3809H-14ZM72.3994 14.8706V61.251H81.0384V14.8706H72.3994ZM132.404 14.8706V61.251H141.043V14.8706H132.404ZM101.201 46.3809V0.00050354H109.84V46.3809H101.201ZM187.606 14.8706V61.251H196.245V14.8706H187.606ZM158.804 78.3184V31.9394H167.443V78.3184H158.804ZM247.611 14.8706V61.251H256.25V14.8706H247.611ZM216.408 46.3809V0.00050354H225.047V46.3809H216.408ZM302.813 14.8706V61.251H311.452V14.8706H302.813ZM274.011 78.3184V31.9394H282.65V78.3184H274.011ZM362.817 14.8706V61.251H371.456V14.8706H362.817ZM331.615 46.3809V0.00050354H340.253V46.3809H331.615ZM418.02 14.8706V61.251H426.659V14.8706H418.02ZM389.217 78.3184V31.9394H397.856V78.3184H389.217ZM478.019 14.8706V61.251H486.658V14.8706H478.019ZM446.821 46.3809V0.00050354H455.46V46.3809H446.821ZM533.226 14.8706V61.251H541.865V14.8706H533.226ZM504.424 78.3184V31.9394H513.063V78.3184H504.424ZM593.225 14.8706V61.251H601.864V14.8706H593.225ZM562.023 46.3809V0.00050354H570.662V46.3809H562.023ZM648.428 14.8706V61.251H657.067V14.8706H648.428ZM619.626 78.3184V31.9394H628.265V78.3184H619.626ZM708.432 14.8706V61.251H717.071V14.8706H708.432ZM677.229 46.3809V0.00050354H685.868V46.3809H677.229ZM763.634 14.8706V61.251H772.273V14.8706H763.634ZM734.832 78.3184V31.9394H743.471V78.3184H734.832ZM823.639 14.8706V61.251H832.278V14.8706H823.639ZM792.436 46.3809V0.00050354H801.075V46.3809H792.436ZM878.841 14.8706V61.251H887.48V14.8706H878.841ZM850.039 78.3184V31.9394H858.678V78.3184H850.039ZM938.845 14.8706V61.251H947.484V14.8706H938.845ZM907.643 46.3809V0.00050354H916.282V46.3809H907.643ZM994.048 14.8706V61.251H1002.69V14.8706H994.048ZM965.246 78.3184V31.9394H973.885V78.3184H965.246ZM1054.05 14.8706V61.251H1062.69V14.8706H1054.05ZM1022.85 46.3809V0.00050354H1031.49V46.3809H1022.85ZM1109.25 14.8706V61.251H1117.89V14.8706H1109.25ZM1080.45 78.3184V31.9394H1089.09V78.3184H1080.45ZM1169.25 14.8706V61.251H1177.89V14.8706H1169.25ZM1138.05 46.3809V0.00050354H1146.69V46.3809H1138.05ZM1224.46 14.8706V61.251H1233.09V14.8706H1224.46ZM1195.65 78.3184V31.9394H1204.29V78.3184H1195.65ZM1284.46 14.8706V61.251H1293.1V14.8706H1284.46ZM1253.26 46.3809V0.00050354H1261.9V46.3809H1253.26ZM1339.66 14.8706V61.251H1348.3V14.8706H1339.66ZM1310.86 78.3184V31.9394H1319.5V78.3184H1310.86ZM1399.67 14.8706V61.251H1408.31V14.8706H1399.67ZM1368.46 46.3809V0.00050354H1377.1V46.3809H1368.46ZM1454.87 14.8706V61.251H1463.51V14.8706H1454.87ZM1426.07 78.3184V31.9394H1434.71V78.3184H1426.07ZM1514.87 14.8706V61.251H1523.51V14.8706H1514.87ZM1483.67 46.3809V0.00050354H1492.31V46.3809H1483.67ZM1570.08 14.8706V61.251H1578.71V14.8706H1570.08ZM1541.27 78.3184V31.9394H1549.91V78.3184H1541.27Z" fill="#E5E1D6" style="mix-blend-mode:difference"/>
</svg>
