<?xml version="1.0" encoding="UTF-8"?><svg id="uuid-85a8eafb-840a-4041-850a-1b281d8ba991" xmlns="http://www.w3.org/2000/svg" width="89.51mm" height="121.04mm" viewBox="0 0 253.74 343.12"><defs><style>.uuid-7afc7bb3-b933-4cbb-a9e8-4db1ebb0c0af{fill:#e5e1d6;}.uuid-7afc7bb3-b933-4cbb-a9e8-4db1ebb0c0af,.uuid-5a6b7f87-2317-4a73-a8a2-9c3641c95364,.uuid-9989b967-0b61-4772-9b0d-6f7edf932669,.uuid-5bd66077-b223-4176-83e3-b77bfae4e0e7{stroke-width:0px;}.uuid-5a6b7f87-2317-4a73-a8a2-9c3641c95364{fill:#1e2c3c;}.uuid-9989b967-0b61-4772-9b0d-6f7edf932669{fill:#147985;}.uuid-5bd66077-b223-4176-83e3-b77bfae4e0e7{fill:#080f16;}</style></defs><path class="uuid-5a6b7f87-2317-4a73-a8a2-9c3641c95364" d="m7.7,320.77V37.83c36.58-8.67,73.15-17.34,109.73-26.01,42.84,1.41,85.69,2.82,128.53,4.23.52,91.39,1.05,182.79,1.57,274.18l-98.32,43.2c-47.17-4.22-94.34-8.44-141.52-12.66Z"/><path class="uuid-7afc7bb3-b933-4cbb-a9e8-4db1ebb0c0af" d="m7.7,37.83c.04-.83,46.5.81,139.39,4.9,65.61-18.82,98.56-27.71,98.88-26.68.31,1.02-31.58,11.84-95.67,32.44.38,189.94.03,284.93-1.08,284.94-1.1,0-2.95-95.3-5.54-285.93C52.98,41.87,7.65,38.65,7.7,37.83Z"/><ellipse class="uuid-7afc7bb3-b933-4cbb-a9e8-4db1ebb0c0af" cx="74.97" cy="252.67" rx="60.16" ry="66.38" transform="translate(-101.44 56.86) rotate(-25.49)"/><ellipse class="uuid-5bd66077-b223-4176-83e3-b77bfae4e0e7" cx="74.97" cy="252.76" rx="60.16" ry="63.41"/><ellipse class="uuid-5a6b7f87-2317-4a73-a8a2-9c3641c95364" cx="72.18" cy="252.76" rx="51.41" ry="55.11"/><ellipse class="uuid-9989b967-0b61-4772-9b0d-6f7edf932669" cx="74.97" cy="254.51" rx="18.56" ry="19.68"/><path class="uuid-7afc7bb3-b933-4cbb-a9e8-4db1ebb0c0af" d="m71.79,235.13c-4.95-11.67-9.9-23.34-14.85-35.01-3.9,1.34-9.77,3.87-15.78,8.7-6.11,4.92-9.87,10.22-12.01,13.79,9.82,7.54,19.64,15.07,29.46,22.61.57-1.41,2.17-4.78,5.87-7.33,2.93-2.02,5.81-2.57,7.31-2.75Z"/><path class="uuid-7afc7bb3-b933-4cbb-a9e8-4db1ebb0c0af" d="m93.48,253.08c10.03.47,20.06.93,30.08,1.4.04,2.34,0,27.52-21.35,43.01-22.86,16.6-48.77,6.56-50.31,5.93,4.78-10.51,9.57-21.02,14.35-31.52,5.99,3.09,13.17,2.79,18.78-.82,5.98-3.84,9.26-10.85,8.44-18Z"/><ellipse class="uuid-7afc7bb3-b933-4cbb-a9e8-4db1ebb0c0af" cx="71.79" cy="114.09" rx="42.69" ry="47.1" transform="translate(-42.11 42) rotate(-25.49)"/><ellipse class="uuid-5bd66077-b223-4176-83e3-b77bfae4e0e7" cx="71.79" cy="114.15" rx="42.69" ry="44.99"/><ellipse class="uuid-5a6b7f87-2317-4a73-a8a2-9c3641c95364" cx="69.81" cy="114.15" rx="36.48" ry="39.1"/><ellipse class="uuid-9989b967-0b61-4772-9b0d-6f7edf932669" cx="71.79" cy="115.4" rx="13.17" ry="13.96"/><path class="uuid-7afc7bb3-b933-4cbb-a9e8-4db1ebb0c0af" d="m69.53,101.64c-3.51-8.28-7.02-16.56-10.54-24.84-2.77.95-6.94,2.74-11.2,6.17-4.34,3.49-7.01,7.25-8.52,9.78,6.97,5.35,13.94,10.69,20.9,16.04.41-1,1.54-3.39,4.16-5.2,2.08-1.43,4.12-1.82,5.19-1.95Z"/><path class="uuid-7afc7bb3-b933-4cbb-a9e8-4db1ebb0c0af" d="m84.92,114.37c7.12.33,14.23.66,21.35.99.03,1.66,0,19.52-15.15,30.52-16.22,11.78-34.6,4.65-35.7,4.21,3.39-7.46,6.79-14.91,10.18-22.37,4.25,2.19,9.35,1.98,13.33-.58,4.24-2.73,6.57-7.7,5.99-12.77Z"/><path class="uuid-5bd66077-b223-4176-83e3-b77bfae4e0e7" d="m150.29,48.5c31.89-10.81,63.78-21.63,95.67-32.44.52,91.39,1.05,182.79,1.57,274.18l-98.32,43.2c.36-94.98.72-189.96,1.08-284.94Z"/></svg>