<?xml version="1.0" encoding="UTF-8"?><svg id="uuid-00a144a9-5031-4713-b07b-5c038876475d" xmlns="http://www.w3.org/2000/svg" width="89.51mm" height="121.04mm" viewBox="0 0 253.74 343.12"><defs><style>.uuid-e6717d58-8dd8-43c5-a3ed-46cf9bcaaae3{fill:#e5e1d6;}.uuid-e6717d58-8dd8-43c5-a3ed-46cf9bcaaae3,.uuid-43bd4243-569f-4061-9f23-77755d35bcc7,.uuid-6d9d163f-8866-4f56-8327-eb9931b8f33f,.uuid-04827fe4-2581-48c2-8b9b-902508b86ba9{stroke-width:0px;}.uuid-43bd4243-569f-4061-9f23-77755d35bcc7{fill:#1e2c3c;}.uuid-6d9d163f-8866-4f56-8327-eb9931b8f33f{fill:#147985;}.uuid-04827fe4-2581-48c2-8b9b-902508b86ba9{fill:#080f16;}</style></defs><path class="uuid-43bd4243-569f-4061-9f23-77755d35bcc7" d="m247.53,320.77V37.83c-36.58-8.67-73.15-17.34-109.73-26.01-42.84,1.41-85.69,2.82-128.53,4.23-.52,91.39-1.05,182.79-1.57,274.18,32.77,14.4,65.54,28.8,98.32,43.2,47.17-4.22,94.34-8.44,141.52-12.66Z"/><path class="uuid-e6717d58-8dd8-43c5-a3ed-46cf9bcaaae3" d="m247.53,37.83c-.04-.83-46.5.81-139.39,4.9C42.54,23.92,9.58,15.02,9.27,16.06c-.31,1.02,31.58,11.84,95.67,32.44-.38,189.94-.03,284.93,1.08,284.94,1.1,0,2.95-95.3,5.54-285.93,90.69-5.63,136.02-8.85,135.97-9.67Z"/><ellipse class="uuid-e6717d58-8dd8-43c5-a3ed-46cf9bcaaae3" cx="180.26" cy="252.67" rx="66.38" ry="60.16" transform="translate(-125.4 306.64) rotate(-64.51)"/><path class="uuid-04827fe4-2581-48c2-8b9b-902508b86ba9" d="m240.41,252.76c0,35.02-26.93,63.41-60.16,63.41-33.22,0-60.16-28.39-60.16-63.41,0-35.02,26.93-63.41,60.16-63.41s60.16,28.39,60.16,63.41Z"/><path class="uuid-43bd4243-569f-4061-9f23-77755d35bcc7" d="m234.46,252.76c0,30.44-23.02,55.11-51.41,55.11-28.39,0-51.41-24.67-51.41-55.11,0-30.44,23.02-55.11,51.41-55.11,28.39,0,51.41,24.67,51.41,55.11Z"/><ellipse class="uuid-6d9d163f-8866-4f56-8327-eb9931b8f33f" cx="180.26" cy="254.51" rx="18.56" ry="19.68"/><path class="uuid-e6717d58-8dd8-43c5-a3ed-46cf9bcaaae3" d="m183.44,235.13c4.95-11.67,9.9-23.34,14.85-35.01,3.9,1.34,9.77,3.87,15.78,8.7,6.11,4.92,9.87,10.22,12.01,13.79-9.82,7.54-19.64,15.07-29.46,22.61-.57-1.41-2.17-4.78-5.87-7.33-2.93-2.02-5.81-2.57-7.31-2.75Z"/><path class="uuid-e6717d58-8dd8-43c5-a3ed-46cf9bcaaae3" d="m161.75,253.08c-10.03.47-20.06.93-30.08,1.4-.04,2.34,0,27.52,21.35,43.01,22.86,16.6,48.77,6.56,50.31,5.93-4.78-10.51-9.57-21.02-14.35-31.52-5.99,3.09-13.17,2.79-18.78-.82-5.98-3.84-9.26-10.85-8.44-18Z"/><ellipse class="uuid-e6717d58-8dd8-43c5-a3ed-46cf9bcaaae3" cx="183.44" cy="114.09" rx="47.1" ry="42.69" transform="translate(1.51 230.57) rotate(-64.51)"/><path class="uuid-04827fe4-2581-48c2-8b9b-902508b86ba9" d="m226.13,114.15c0,24.85-19.11,44.99-42.69,44.99-23.57,0-42.69-20.14-42.69-44.99s19.11-44.99,42.69-44.99,42.69,20.14,42.69,44.99Z"/><path class="uuid-43bd4243-569f-4061-9f23-77755d35bcc7" d="m221.9,114.15c0,21.6-16.33,39.1-36.48,39.1-20.15,0-36.48-17.51-36.48-39.1,0-21.6,16.33-39.1,36.48-39.1,20.15,0,36.48,17.51,36.48,39.1Z"/><ellipse class="uuid-6d9d163f-8866-4f56-8327-eb9931b8f33f" cx="183.44" cy="115.4" rx="13.17" ry="13.96"/><path class="uuid-e6717d58-8dd8-43c5-a3ed-46cf9bcaaae3" d="m185.7,101.64c3.51-8.28,7.02-16.56,10.54-24.84,2.77.95,6.94,2.74,11.2,6.17,4.34,3.49,7.01,7.25,8.52,9.78-6.97,5.35-13.94,10.69-20.9,16.04-.41-1-1.54-3.39-4.16-5.2-2.08-1.43-4.12-1.82-5.19-1.95Z"/><path class="uuid-e6717d58-8dd8-43c5-a3ed-46cf9bcaaae3" d="m170.31,114.37c-7.12.33-14.23.66-21.35.99-.03,1.66,0,19.52,15.15,30.52,16.22,11.78,34.6,4.65,35.7,4.21-3.39-7.46-6.79-14.91-10.18-22.37-4.25,2.19-9.35,1.98-13.33-.58-4.24-2.73-6.57-7.7-5.99-12.77Z"/><path class="uuid-04827fe4-2581-48c2-8b9b-902508b86ba9" d="m104.94,48.5c-31.89-10.81-63.78-21.63-95.67-32.44-.52,91.39-1.05,182.79-1.57,274.18,32.77,14.4,65.54,28.8,98.32,43.2-.36-94.98-.72-189.96-1.08-284.94Z"/></svg>