<svg width="407" height="216" viewBox="0 0 407 216" fill="none" xmlns="http://www.w3.org/2000/svg">
<path fill-rule="evenodd" clip-rule="evenodd" d="M0.5 0.5H69.4585L69.5076 1.9492C69.7438 8.92038 75.4706 14.5 82.5 14.5C89.5294 14.5 95.2562 8.92038 95.4924 1.9492L95.5415 0.5H312.458L312.508 1.9492C312.744 8.92038 318.471 14.5 325.5 14.5C332.529 14.5 338.256 8.92038 338.492 1.9492L338.542 0.5H406.5V12.334H405C401.962 12.334 399.5 14.7964 399.5 17.834C399.5 20.8716 401.962 23.334 405 23.334H406.5V32.166H405C401.962 32.166 399.5 34.6284 399.5 37.666C399.5 40.7036 401.962 43.166 405 43.166H406.5V52H405C401.962 52 399.5 54.4624 399.5 57.5C399.5 60.5376 401.962 63 405 63H406.5V73H405C401.962 73 399.5 75.4624 399.5 78.5C399.5 81.5376 401.962 84 405 84H406.5V92.834H405C401.962 92.834 399.5 95.2964 399.5 98.334C399.5 101.372 401.962 103.834 405 103.834H406.5V112.666H405C401.962 112.666 399.5 115.128 399.5 118.166C399.5 121.204 401.962 123.666 405 123.666H406.5V132.5H405C401.962 132.5 399.5 134.962 399.5 138C399.5 141.038 401.962 143.5 405 143.5H406.5V153.5H405C401.962 153.5 399.5 155.962 399.5 159C399.5 162.038 401.962 164.5 405 164.5H406.5V173.334H405C401.962 173.334 399.5 175.796 399.5 178.834C399.5 181.872 401.962 184.334 405 184.334H406.5V193.166H405C401.962 193.166 399.5 195.628 399.5 198.666C399.5 201.704 401.962 204.166 405 204.166H406.5V215.5H338.44L338.492 213.949C338.497 213.8 338.5 213.65 338.5 213.5C338.5 206.32 332.68 200.5 325.5 200.5C318.32 200.5 312.5 206.32 312.5 213.5C312.5 213.65 312.503 213.8 312.508 213.949L312.56 215.5H95.4399L95.4924 213.949C95.4975 213.8 95.5 213.65 95.5 213.5C95.5 206.32 89.6797 200.5 82.5 200.5C75.3203 200.5 69.5 206.32 69.5 213.5C69.5 213.65 69.5025 213.8 69.5076 213.949L69.5601 215.5H0.5V204.166H2C5.03757 204.166 7.5 201.704 7.5 198.666C7.5 195.628 5.03757 193.166 2 193.166H0.5V184.334H2C5.03757 184.334 7.5 181.872 7.5 178.834C7.5 175.796 5.03757 173.334 2 173.334H0.5V164.5H2C5.03757 164.5 7.5 162.038 7.5 159C7.5 155.962 5.03757 153.5 2 153.5H0.5V143.5H2C5.03757 143.5 7.5 141.038 7.5 138C7.5 134.962 5.03757 132.5 2 132.5H0.5V123.666H2C5.03757 123.666 7.5 121.204 7.5 118.166C7.5 115.128 5.03757 112.666 2 112.666H0.5V103.834H2C5.03757 103.834 7.5 101.372 7.5 98.334C7.5 95.2964 5.03757 92.834 2 92.834H0.5V84H2C5.03757 84 7.5 81.5376 7.5 78.5C7.5 75.4624 5.03757 73 2 73H0.5V63H2C5.03757 63 7.5 60.5376 7.5 57.5C7.5 54.4624 5.03757 52 2 52H0.5V43.166H2C5.03757 43.166 7.5 40.7036 7.5 37.666C7.5 34.6284 5.03757 32.166 2 32.166H0.5V23.334H2C5.03757 23.334 7.5 20.8716 7.5 17.834C7.5 14.7964 5.03757 12.334 2 12.334H0.5V0.5ZM3.5 3.5V9.46592C7.47902 10.1744 10.5 13.6514 10.5 17.834C10.5 22.0166 7.47902 25.4936 3.5 26.2021V29.2979C7.47902 30.0064 10.5 33.4834 10.5 37.666C10.5 41.8486 7.47902 45.3256 3.5 46.0341V49.1319C7.47902 49.8404 10.5 53.3174 10.5 57.5C10.5 61.6826 7.47902 65.1596 3.5 65.8681V70.1319C7.47902 70.8404 10.5 74.3174 10.5 78.5C10.5 82.6826 7.47902 86.1596 3.5 86.8681V89.9659C7.47902 90.6744 10.5 94.1514 10.5 98.334C10.5 102.517 7.47902 105.994 3.5 106.702V109.798C7.47902 110.506 10.5 113.983 10.5 118.166C10.5 122.349 7.47902 125.826 3.5 126.534V129.632C7.47902 130.34 10.5 133.817 10.5 138C10.5 142.183 7.47902 145.66 3.5 146.368V150.632C7.47902 151.34 10.5 154.817 10.5 159C10.5 163.183 7.47902 166.66 3.5 167.368V170.466C7.47902 171.174 10.5 174.651 10.5 178.834C10.5 183.017 7.47902 186.494 3.5 187.202V190.298C7.47902 191.006 10.5 194.483 10.5 198.666C10.5 202.849 7.47902 206.326 3.5 207.034V212.5H66.5307C67.0469 204.129 73.9993 197.5 82.5 197.5C91.0007 197.5 97.9531 204.129 98.4693 212.5H309.531C310.047 204.129 316.999 197.5 325.5 197.5C334.001 197.5 340.953 204.129 341.469 212.5H403.5V207.034C399.521 206.326 396.5 202.849 396.5 198.666C396.5 194.483 399.521 191.006 403.5 190.298V187.202C399.521 186.494 396.5 183.017 396.5 178.834C396.5 174.651 399.521 171.174 403.5 170.466V167.368C399.521 166.66 396.5 163.183 396.5 159C396.5 154.817 399.521 151.34 403.5 150.632V146.368C399.521 145.66 396.5 142.183 396.5 138C396.5 133.817 399.521 130.34 403.5 129.632V126.534C399.521 125.826 396.5 122.349 396.5 118.166C396.5 113.983 399.521 110.506 403.5 109.798V106.702C399.521 105.994 396.5 102.517 396.5 98.334C396.5 94.1514 399.521 90.6744 403.5 89.9659V86.8681C399.521 86.1596 396.5 82.6826 396.5 78.5C396.5 74.3174 399.521 70.8404 403.5 70.1319V65.8681C399.521 65.1596 396.5 61.6826 396.5 57.5C396.5 53.3174 399.521 49.8404 403.5 49.1319V46.0341C399.521 45.3256 396.5 41.8486 396.5 37.666C396.5 33.4834 399.521 30.0064 403.5 29.2979V26.2021C399.521 25.4936 396.5 22.0166 396.5 17.834C396.5 13.6514 399.521 10.1744 403.5 9.46592V3.5H341.376C340.392 11.393 333.659 17.5 325.5 17.5C317.341 17.5 310.608 11.393 309.624 3.5H98.3761C97.3916 11.393 90.6592 17.5 82.5 17.5C74.3408 17.5 67.6084 11.393 66.6239 3.5H3.5Z" fill="black"/>
</svg>
