<svg width="337" height="166" viewBox="0 0 337 166" fill="none" xmlns="http://www.w3.org/2000/svg">
<path fill-rule="evenodd" clip-rule="evenodd" d="M0.5 0.5H34.0416L34.1841 0.759193C36.7422 5.41412 41.9598 8.6194 48 8.6194C54.0402 8.6194 59.2578 5.41412 61.8159 0.759193L61.9584 0.5H276.05L276.17 0.829315C278.231 6.50416 284.016 10.6194 290.861 10.6194C297.707 10.6194 303.491 6.50416 305.552 0.829315L305.672 0.5H336.5V165.5H304.841L304.73 165.151C302.841 159.209 296.915 154.84 289.861 154.84C282.807 154.84 276.881 159.209 274.992 165.151L274.882 165.5H63.2275L63.1361 165.116C61.6086 158.688 55.4315 153.84 48 153.84C40.5685 153.84 34.3914 158.688 32.8639 165.116L32.7725 165.5H0.5V0.5ZM1.5 1.5V164.5H31.9879C33.7804 157.782 40.2882 152.84 48 152.84C55.7118 152.84 62.2196 157.782 64.0121 164.5H274.155C276.3 158.297 282.536 153.84 289.861 153.84C297.186 153.84 303.422 158.297 305.567 164.5H335.5V1.5H306.368C304.055 7.41958 297.972 11.6194 290.861 11.6194C283.75 11.6194 277.667 7.41958 275.354 1.5H62.5465C59.7588 6.34294 54.2818 9.6194 48 9.6194C41.7182 9.6194 36.2412 6.34294 33.4535 1.5H1.5Z" fill="black"/>
<path fill-rule="evenodd" clip-rule="evenodd" d="M1 83L336 83V84L1 84L1 83Z" fill="black"/>
</svg>
