<?xml version="1.0" encoding="UTF-8"?><svg id="uuid-63d68b8e-ef87-44c9-8798-accfae28e4a1" xmlns="http://www.w3.org/2000/svg" width="33.57mm" height="31.28mm" viewBox="0 0 95.17 88.66"><defs><style>.uuid-f39a51bd-9755-4d76-8c70-94dad49f88bc{fill:#fff;}.uuid-f39a51bd-9755-4d76-8c70-94dad49f88bc,.uuid-7d1e9879-5469-42c6-b7b3-dc4358c74824{stroke:#000;stroke-linecap:round;stroke-linejoin:round;stroke-width:.68px;}.uuid-7d1e9879-5469-42c6-b7b3-dc4358c74824{fill:none;}</style></defs><path class="uuid-f39a51bd-9755-4d76-8c70-94dad49f88bc" d="m-25.84,61.25c4.28,5.17,11,12.11,20.69,18.29,8.3,5.29,16.11,8.31,22.01,10.1-41.38.12-82.76.24-124.14.37,12.7-19.82,25.4-39.64,38.1-59.46,9.63-15.03,18.71-20.53,29.37-22.64,1.65-.33,22.22-4.06,33.32,10.48,5.32,6.97,9.07,19.03,3.14,29.71-4.39,7.91-13.14,13.37-22.51,13.16-11.26-.25-23.8-8.69-24-19.94-.12-6.98,4.58-14.13,11.42-17.13.98-.43,9.99-4.21,16.97,1.16,3.62,2.79,7.34,8.54,5.38,14.15-1.28,3.66-4.95,7.21-9.35,7.2-3.99,0-8.66-2.93-8.52-6.12.07-1.71,1.49-3.02,2.48-3.75"/><path class="uuid-f39a51bd-9755-4d76-8c70-94dad49f88bc" d="m69.65,61.25c4.28,5.17,11,12.11,20.69,18.29,8.3,5.29,16.11,8.31,22.01,10.1-41.38.12-82.76.24-124.14.37C.92,70.18,13.62,50.36,26.32,30.54c9.63-15.03,18.71-20.53,29.37-22.64,1.65-.33,22.22-4.06,33.32,10.48,5.32,6.97,9.07,19.03,3.14,29.71-4.39,7.91-13.14,13.37-22.51,13.16-11.26-.25-23.8-8.69-24-19.94-.12-6.98,4.58-14.13,11.42-17.13.98-.43,9.99-4.21,16.97,1.16,3.62,2.79,7.34,8.54,5.38,14.15-1.28,3.66-4.95,7.21-9.35,7.2-3.99,0-8.66-2.93-8.52-6.12.07-1.71,1.49-3.02,2.48-3.75"/><path class="uuid-f39a51bd-9755-4d76-8c70-94dad49f88bc" d="m165.14,61.25c4.28,5.17,11,12.11,20.69,18.29,8.3,5.29,16.11,8.31,22.01,10.1-41.38.12-82.76.24-124.14.37,12.7-19.82,25.4-39.64,38.1-59.46,9.63-15.03,18.71-20.53,29.37-22.64,1.65-.33,22.22-4.06,33.32,10.48,5.32,6.97,9.07,19.03,3.14,29.71-4.39,7.91-13.14,13.37-22.51,13.16-11.26-.25-23.8-8.69-24-19.94-.12-6.98,4.58-14.13,11.42-17.13.98-.43,9.99-4.21,16.97,1.16,3.62,2.79,7.34,8.54,5.38,14.15-1.28,3.66-4.95,7.21-9.35,7.2-3.99,0-8.66-2.93-8.52-6.12.07-1.71,1.49-3.02,2.48-3.75"/><rect class="uuid-7d1e9879-5469-42c6-b7b3-dc4358c74824" x="-.35" y="-.32" width="95.87" height="89.38"/><rect class="uuid-7d1e9879-5469-42c6-b7b3-dc4358c74824" x="-.35" y="-.32" width="95.87" height="89.38"/></svg>