<?xml version="1.0" encoding="UTF-8"?><svg id="uuid-5b75e931-f1d7-46f4-9c3f-f07140a39348" xmlns="http://www.w3.org/2000/svg" width="203.59mm" height="31.28mm" viewBox="0 0 577.12 88.66"><defs><style>.uuid-44103a4a-f294-45e3-a5e6-b818d23c346b{stroke-width:0px;}.uuid-44103a4a-f294-45e3-a5e6-b818d23c346b,.uuid-d75bdec6-1803-412d-ac7d-67e2c0fe808a{fill:#e5e1d6;}.uuid-d75bdec6-1803-412d-ac7d-67e2c0fe808a{stroke:#000;stroke-linecap:round;stroke-linejoin:round;stroke-width:.68px;}</style></defs><path class="uuid-d75bdec6-1803-412d-ac7d-67e2c0fe808a" d="m-21.11,61.25c4.28,5.17,11,12.11,20.69,18.29,8.3,5.29,16.11,8.31,22.01,10.1-41.38.12-82.76.24-124.14.37,12.7-19.82,25.4-39.64,38.1-59.46,9.63-15.03,18.71-20.53,29.37-22.64,1.65-.33,22.22-4.06,33.32,10.48,5.32,6.97,9.07,19.03,3.14,29.71-4.39,7.91-13.14,13.37-22.51,13.16-11.26-.25-23.8-8.69-24-19.94-.12-6.98,4.58-14.13,11.42-17.13.98-.43,9.99-4.21,16.97,1.16,3.62,2.79,7.34,8.54,5.38,14.15-1.28,3.66-4.95,7.21-9.35,7.2-3.99,0-8.66-2.93-8.52-6.12.07-1.71,1.49-3.02,2.48-3.75"/><path class="uuid-d75bdec6-1803-412d-ac7d-67e2c0fe808a" d="m75.08,61.25c4.28,5.17,11,12.11,20.69,18.29,8.3,5.29,16.11,8.31,22.01,10.1-41.38.12-82.76.24-124.14.37C6.35,70.18,19.05,50.36,31.75,30.54c9.63-15.03,18.71-20.53,29.37-22.64,1.65-.33,22.22-4.06,33.32,10.48,5.32,6.97,9.07,19.03,3.14,29.71-4.39,7.91-13.14,13.37-22.51,13.16-11.26-.25-23.8-8.69-24-19.94-.12-6.98,4.58-14.13,11.42-17.13.98-.43,9.99-4.21,16.97,1.16,3.62,2.79,7.34,8.54,5.38,14.15-1.28,3.66-4.95,7.21-9.35,7.2-3.99,0-8.66-2.93-8.52-6.12.07-1.71,1.49-3.02,2.48-3.75"/><path class="uuid-d75bdec6-1803-412d-ac7d-67e2c0fe808a" d="m171.27,61.25c4.28,5.17,11,12.11,20.69,18.29,8.3,5.29,16.11,8.31,22.01,10.1-41.38.12-82.76.24-124.14.37,12.7-19.82,25.4-39.64,38.1-59.46,9.63-15.03,18.71-20.53,29.37-22.64,1.65-.33,22.22-4.06,33.32,10.48,5.32,6.97,9.07,19.03,3.14,29.71-4.39,7.91-13.14,13.37-22.51,13.16-11.26-.25-23.8-8.69-24-19.94-.12-6.98,4.58-14.13,11.42-17.13.98-.43,9.99-4.21,16.97,1.16,3.62,2.79,7.34,8.54,5.38,14.15-1.28,3.66-4.95,7.21-9.35,7.2-3.99,0-8.66-2.93-8.52-6.12.07-1.71,1.49-3.02,2.48-3.75"/><path class="uuid-d75bdec6-1803-412d-ac7d-67e2c0fe808a" d="m267.45,61.25c4.28,5.17,11,12.11,20.69,18.29,8.3,5.29,16.11,8.31,22.01,10.1-41.38.12-82.76.24-124.14.37,12.7-19.82,25.4-39.64,38.1-59.46,9.63-15.03,18.71-20.53,29.37-22.64,1.65-.33,22.22-4.06,33.32,10.48,5.32,6.97,9.07,19.03,3.14,29.71-4.39,7.91-13.14,13.37-22.51,13.16-11.26-.25-23.8-8.69-24-19.94-.12-6.98,4.58-14.13,11.42-17.13.98-.43,9.99-4.21,16.97,1.16,3.62,2.79,7.34,8.54,5.38,14.15-1.28,3.66-4.95,7.21-9.35,7.2-3.99,0-8.66-2.93-8.52-6.12.07-1.71,1.49-3.02,2.48-3.75"/><path class="uuid-d75bdec6-1803-412d-ac7d-67e2c0fe808a" d="m363.64,61.25c4.28,5.17,11,12.11,20.69,18.29,8.3,5.29,16.11,8.31,22.01,10.1-41.38.12-82.76.24-124.14.37,12.7-19.82,25.4-39.64,38.1-59.46,9.63-15.03,18.71-20.53,29.37-22.64,1.65-.33,22.22-4.06,33.32,10.48,5.32,6.97,9.07,19.03,3.14,29.71-4.39,7.91-13.14,13.37-22.51,13.16-11.26-.25-23.8-8.69-24-19.94-.12-6.98,4.58-14.13,11.42-17.13.98-.43,9.99-4.21,16.97,1.16,3.62,2.79,7.34,8.54,5.38,14.15-1.28,3.66-4.95,7.21-9.35,7.2-3.99,0-8.66-2.93-8.52-6.12.07-1.71,1.49-3.02,2.48-3.75"/><path class="uuid-d75bdec6-1803-412d-ac7d-67e2c0fe808a" d="m459.82,61.25c4.28,5.17,11,12.11,20.69,18.29,8.3,5.29,16.11,8.31,22.01,10.1-41.38.12-82.76.24-124.14.37,12.7-19.82,25.4-39.64,38.1-59.46,9.63-15.03,18.71-20.53,29.37-22.64,1.65-.33,22.22-4.06,33.32,10.48,5.32,6.97,9.07,19.03,3.14,29.71-4.39,7.91-13.14,13.37-22.51,13.16-11.26-.25-23.8-8.69-24-19.94-.12-6.98,4.58-14.13,11.42-17.13.98-.43,9.99-4.21,16.97,1.16,3.62,2.79,7.34,8.54,5.38,14.15-1.28,3.66-4.95,7.21-9.35,7.2-3.99,0-8.66-2.93-8.52-6.12.07-1.71,1.49-3.02,2.48-3.75"/><path class="uuid-d75bdec6-1803-412d-ac7d-67e2c0fe808a" d="m556.01,61.25c4.28,5.17,11,12.11,20.69,18.29,8.3,5.29,16.11,8.31,22.01,10.1-41.38.12-82.76.24-124.14.37,12.7-19.82,25.4-39.64,38.1-59.46,9.63-15.03,18.71-20.53,29.37-22.64,1.65-.33,22.22-4.06,33.32,10.48,5.32,6.97,9.07,19.03,3.14,29.71-4.39,7.91-13.14,13.37-22.51,13.16-11.26-.25-23.8-8.69-24-19.94-.12-6.98,4.58-14.13,11.42-17.13.98-.43,9.99-4.21,16.97,1.16,3.62,2.79,7.34,8.54,5.38,14.15-1.28,3.66-4.95,7.21-9.35,7.2-3.99,0-8.66-2.93-8.52-6.12.07-1.71,1.49-3.02,2.48-3.75"/><path class="uuid-d75bdec6-1803-412d-ac7d-67e2c0fe808a" d="m652.19,61.25c4.28,5.17,11,12.11,20.69,18.29,8.3,5.29,16.11,8.31,22.01,10.1-41.38.12-82.76.24-124.14.37,12.7-19.82,25.4-39.64,38.1-59.46,9.63-15.03,18.71-20.53,29.37-22.64,1.65-.33,22.22-4.06,33.32,10.48,5.32,6.97,9.07,19.03,3.14,29.71-4.39,7.91-13.14,13.37-22.51,13.16-11.26-.25-23.8-8.69-24-19.94-.12-6.98,4.58-14.13,11.42-17.13.98-.43,9.99-4.21,16.97,1.16,3.62,2.79,7.34,8.54,5.38,14.15-1.28,3.66-4.95,7.21-9.35,7.2-3.99,0-8.66-2.93-8.52-6.12.07-1.71,1.49-3.02,2.48-3.75"/><rect class="uuid-44103a4a-f294-45e3-a5e6-b818d23c346b" x="-15.37" y="86.86" width="717" height="5.2" transform="translate(-.34 1.33) rotate(-.22)"/></svg>