<svg width="215" height="214" viewBox="0 0 215 214" fill="none" xmlns="http://www.w3.org/2000/svg">
<path d="M107.498 0C48.1289 0 0 48.082 0 107.393C0 157.756 34.7089 200.017 81.5307 211.624V140.212H59.3646V107.393H81.5307V93.2515C81.5307 56.6992 98.0896 39.7569 134.011 39.7569C140.822 39.7569 152.574 41.0929 157.381 42.4246V72.1724C154.844 71.9061 150.437 71.7729 144.963 71.7729C127.338 71.7729 120.527 78.4442 120.527 95.786V107.393H155.64L149.607 140.212H120.527V214C173.755 207.578 215 162.301 215 107.393C214.996 48.082 166.867 0 107.498 0Z" fill="#e5e1d6"/>
</svg>
