<svg width="176" height="176" viewBox="0 0 176 176" fill="#e5e1d6" xmlns="http://www.w3.org/2000/svg">
<g clip-path="url(#clip0_260_4873)">
<path d="M88 15.8469C111.513 15.8469 114.297 15.95 123.544 16.3625C132.138 16.7406 136.778 18.1844 139.872 19.3875C143.963 20.9688 146.919 22.8938 149.978 25.9531C153.072 29.0469 154.963 31.9688 156.544 36.0594C157.747 39.1531 159.191 43.8281 159.569 52.3875C159.981 61.6687 160.084 64.4531 160.084 87.9313C160.084 111.444 159.981 114.228 159.569 123.475C159.191 132.069 157.747 136.709 156.544 139.803C154.963 143.894 153.038 146.85 149.978 149.909C146.884 153.003 143.963 154.894 139.872 156.475C136.778 157.678 132.103 159.122 123.544 159.5C114.263 159.913 111.478 160.016 88 160.016C64.4875 160.016 61.7031 159.913 52.4563 159.5C43.8625 159.122 39.2219 157.678 36.1281 156.475C32.0375 154.894 29.0813 152.969 26.0219 149.909C22.9281 146.816 21.0375 143.894 19.4563 139.803C18.2531 136.709 16.8094 132.034 16.4313 123.475C16.0188 114.194 15.9156 111.409 15.9156 87.9313C15.9156 64.4188 16.0188 61.6344 16.4313 52.3875C16.8094 43.7937 18.2531 39.1531 19.4563 36.0594C21.0375 31.9688 22.9625 29.0125 26.0219 25.9531C29.1156 22.8594 32.0375 20.9688 36.1281 19.3875C39.2219 18.1844 43.8969 16.7406 52.4563 16.3625C61.7031 15.95 64.4875 15.8469 88 15.8469ZM88 0C64.1094 0 61.1188 0.103125 51.7344 0.515625C42.3844 0.928125 35.9563 2.44062 30.3875 4.60625C24.5781 6.875 19.6625 9.86563 14.7813 14.7813C9.86563 19.6625 6.875 24.5781 4.60625 30.3531C2.44063 35.9563 0.928125 42.35 0.515625 51.7C0.103125 61.1187 0 64.1094 0 88C0 111.891 0.103125 114.881 0.515625 124.266C0.928125 133.616 2.44063 140.044 4.60625 145.613C6.875 151.422 9.86563 156.338 14.7813 161.219C19.6625 166.1 24.5781 169.125 30.3531 171.359C35.9563 173.525 42.35 175.037 51.7 175.45C61.0844 175.862 64.075 175.966 87.9656 175.966C111.856 175.966 114.847 175.862 124.231 175.45C133.581 175.037 140.009 173.525 145.578 171.359C151.353 169.125 156.269 166.1 161.15 161.219C166.031 156.338 169.056 151.422 171.291 145.647C173.456 140.044 174.969 133.65 175.381 124.3C175.794 114.916 175.897 111.925 175.897 88.0344C175.897 64.1438 175.794 61.1531 175.381 51.7688C174.969 42.4188 173.456 35.9906 171.291 30.4219C169.125 24.5781 166.134 19.6625 161.219 14.7813C156.338 9.9 151.422 6.875 145.647 4.64063C140.044 2.475 133.65 0.9625 124.3 0.55C114.881 0.103125 111.891 0 88 0Z" fill="inherit"/>
<path d="M88 42.7969C63.0438 42.7969 42.7969 63.0438 42.7969 88C42.7969 112.956 63.0438 133.203 88 133.203C112.956 133.203 133.203 112.956 133.203 88C133.203 63.0438 112.956 42.7969 88 42.7969ZM88 117.322C71.8094 117.322 58.6781 104.191 58.6781 88C58.6781 71.8094 71.8094 58.6781 88 58.6781C104.191 58.6781 117.322 71.8094 117.322 88C117.322 104.191 104.191 117.322 88 117.322Z" fill="inherit"/>
<path d="M145.544 41.0102C145.544 46.8539 140.8 51.5633 134.991 51.5633C129.147 51.5633 124.438 46.8196 124.438 41.0102C124.438 35.1664 129.181 30.457 134.991 30.457C140.8 30.457 145.544 35.2008 145.544 41.0102Z" fill="inherit"/>
</g>
<defs>
<clipPath id="clip0_260_4873">
<rect width="176" height="176" fill="white"/>
</clipPath>
</defs>
</svg>
